<svg width="100" height="100" viewBox="0 0 100 100" fill="none" xmlns="http://www.w3.org/2000/svg">
<g clip-path="url(#clip0_25_42)">
<mask id="mask0_25_42" style="mask-type:luminance" maskUnits="userSpaceOnUse" x="0" y="0" width="100" height="100">
<path d="M100 0H0V100H100V0Z" fill="white"/>
</mask>
<g mask="url(#mask0_25_42)">
<path d="M36.8422 39.2982L37.193 39.4737L30.3509 59.6491H29.8246H8.24567L1.40356 39.4737L19.2983 27.0175L36.8422 39.2982ZM38.9474 38.2456L38.772 37.8947L32.1053 18.0702L50.0001 5.61403L67.8948 18.0702L61.2281 37.8947L61.0527 38.2456H38.9474ZM30.7018 62.1053L31.0527 61.9298L48.9474 74.386L48.772 74.7368L42.1053 94.5614H20.0001L13.158 74.386L30.7018 62.1053ZM51.2281 74.7368L51.0527 74.386L68.9474 61.9298L69.2983 62.1053L86.8422 74.386L80.0001 94.5614H57.8948L51.2281 74.7368ZM70.1755 59.8246H69.8246L62.9825 39.6491L63.3334 39.4737L80.8773 27.193L98.772 39.6491L91.9299 59.8246H70.1755Z" fill="url(#paint0_linear_25_42)"/>
<path d="M44.0352 50.3509C43.6843 51.0526 43.5089 51.7544 43.3334 52.1053C43.158 52.4561 42.9826 52.807 42.8071 53.1579C42.6317 53.3333 42.6317 53.5088 42.4562 53.5088H42.2808H42.1054C41.9299 53.5088 41.7545 53.3333 41.5791 53.3333C41.4036 53.1579 41.4036 53.1579 41.4036 52.9824C41.4036 52.9824 41.4036 52.9824 41.4036 52.807C41.4036 52.807 41.4036 52.807 41.4036 52.6316C41.7545 51.9298 42.1054 51.2281 42.4562 50.5263C42.8071 49.8246 42.9826 49.1228 43.3334 48.421C43.3334 48.0702 43.5089 48.0702 43.6843 48.0702C43.6843 48.0702 43.8598 48.0702 44.0352 48.0702C44.3861 48.2456 44.5615 48.421 44.5615 48.5965V48.7719V49.1228L49.2984 48.7719V47.0175C49.2984 46.6667 49.1229 46.4912 48.9475 46.1403C48.9475 45.9649 48.772 45.9649 48.772 45.9649C48.772 45.7895 48.9475 45.7895 49.1229 45.7895H49.2984C49.4738 45.7895 49.6492 45.7895 49.8247 45.9649C50.0001 45.9649 50.1755 46.1403 50.351 46.1403C50.5264 46.1403 50.5264 46.3158 50.5264 46.4912V48.5965L57.544 48.2456H57.8948C58.2457 48.2456 58.4212 48.2456 58.5966 48.421C58.772 48.5965 58.9475 48.7719 58.9475 48.9474C58.9475 49.1228 58.9475 49.1228 58.772 49.2982C58.5966 49.2982 58.5966 49.4737 58.5966 49.6491C58.5966 49.6491 58.5966 49.8246 58.4212 50C58.2457 50.1754 58.0703 50.5263 57.8948 50.7017C57.7194 51.0526 57.544 51.2281 57.1931 51.5789C57.0176 51.9298 56.6668 52.1053 56.4913 52.2807C56.3159 52.4561 56.1405 52.6316 55.965 52.6316C55.7896 52.6316 55.7896 52.6316 55.7896 52.4561C55.7896 52.2807 55.7896 52.1053 55.965 51.9298C56.3159 51.2281 56.8422 50.3509 57.0176 49.4737L44.0352 50.3509ZM51.2282 58.5965C51.2282 58.9474 51.4036 59.4737 51.4036 60C51.4036 60.5263 51.4036 60.8772 51.4036 61.4035V61.7544C51.4036 62.6316 51.4036 63.1579 51.2282 63.6842C51.2282 64.2105 51.0527 64.5614 50.8773 64.7368C50.7019 64.9123 50.5264 65.0877 50.5264 65.2632C50.351 65.2632 50.1755 65.4386 50.1755 65.4386C50.0001 65.4386 49.6492 65.2631 49.2984 65.0877C48.9475 64.9123 48.5966 64.7368 48.0703 64.386C47.7194 64.0351 47.1931 63.8596 46.8422 63.5088C46.4913 63.1579 46.1405 62.9824 45.965 62.6316C45.7896 62.4561 45.6141 62.2807 45.6141 62.1053C45.6141 62.1053 45.6141 61.9298 45.7896 61.9298C45.965 61.9298 46.1405 61.9298 46.3159 62.1053C47.3685 62.6316 48.0703 62.9824 48.772 63.1579C49.4738 63.3333 49.6492 63.5088 49.8247 63.5088C49.8247 63.5088 50.0001 63.5088 50.0001 63.3333C50.0001 62.9824 50.1755 62.6316 50.1755 62.2807C50.1755 61.9298 50.1755 61.5789 50.1755 61.0526C50.1755 60.5263 50.1755 60.1754 50.1755 59.6491C50.1755 59.1228 50.1755 58.7719 50.0001 58.421L42.8071 58.7719C42.6317 58.7719 42.6317 58.7719 42.4562 58.7719C42.2808 58.7719 42.2808 58.7719 42.1054 58.7719C41.7545 58.7719 41.5791 58.7719 41.5791 58.5965C41.4036 58.421 41.4036 58.2456 41.2282 58.2456C41.0527 58.0702 41.0527 57.8947 41.0527 57.8947V57.7193C41.0527 57.7193 41.0527 57.5439 41.2282 57.5439C41.2282 57.5439 41.2282 57.5439 41.4036 57.5439C41.7545 57.5439 41.9299 57.7193 42.2808 57.7193H42.1054L49.4738 57.3684C49.2984 56.8421 49.1229 56.3158 48.9475 55.7895C48.9475 55.614 48.772 55.4386 48.772 55.4386C48.772 55.2632 48.772 55.0877 48.9475 55.0877C49.1229 55.0877 49.1229 54.9123 49.2984 54.9123C49.4738 54.9123 49.4738 54.9123 49.4738 54.9123C49.6492 54.9123 49.8247 55.0877 49.8247 55.2632V55.4386C50.351 55.0877 50.8773 54.7368 51.4036 54.2105C51.9299 53.8596 52.2808 53.3333 52.6317 52.9824L46.4913 53.5088C46.3159 53.5088 46.3159 53.5088 46.1405 53.5088C45.965 53.5088 45.965 53.5088 45.7896 53.5088C45.4387 53.5088 45.2633 53.5088 45.2633 53.3333C45.0878 53.1579 44.9124 52.807 44.7369 52.6316C44.7369 52.4561 44.5615 52.2807 44.5615 52.2807C44.5615 52.1053 44.5615 52.1053 44.7369 52.1053H44.9124C45.0878 52.1053 45.2633 52.1053 45.2633 52.1053C45.4387 52.1053 45.6141 52.1053 45.6141 52.1053H45.7896H45.965L53.158 51.5789H53.3334H53.5089C53.6843 51.5789 53.8598 51.5789 54.0352 51.7544C54.2106 51.9298 54.3861 51.9298 54.3861 52.1053C54.5615 52.2807 54.5615 52.2807 54.5615 52.4561C54.5615 52.6316 54.5615 52.6316 54.3861 52.807C54.2106 52.9824 54.2106 52.9824 54.0352 52.9824C52.8071 54.2105 51.4036 55.2632 50.1755 56.1403L50.351 56.8421L56.4913 56.4912C56.6668 56.4912 56.8422 56.4912 57.0176 56.4912C57.1931 56.4912 57.3685 56.4912 57.544 56.3158H57.7194C57.8948 56.3158 57.8948 56.3158 58.2457 56.4912C58.4212 56.6667 58.5966 56.6667 58.772 56.8421C58.9475 57.0175 58.9475 57.193 58.9475 57.3684C58.9475 57.5439 58.9475 57.5439 58.772 57.5439C58.5966 57.5439 58.5966 57.5439 58.4212 57.5439L51.2282 58.5965Z" fill="url(#paint1_linear_25_42)"/>
</g>
</g>
<defs>
<linearGradient id="paint0_linear_25_42" x1="1.40356" y1="5.61403" x2="98.14" y2="95.2435" gradientUnits="userSpaceOnUse">
<stop stop-color="#059669"/>
<stop offset="0.5" stop-color="#0891B2"/>
<stop offset="1" stop-color="#0D9488"/>
</linearGradient>
<linearGradient id="paint1_linear_25_42" x1="41.0527" y1="45.7895" x2="61.7787" y2="61.7656" gradientUnits="userSpaceOnUse">
<stop stop-color="#059669"/>
<stop offset="0.5" stop-color="#0891B2"/>
<stop offset="1" stop-color="#0D9488"/>
</linearGradient>
<clipPath id="clip0_25_42">
<rect width="100" height="100" fill="white"/>
</clipPath>
</defs>
</svg>
